<svg version="1.2" xmlns="http://www.w3.org/2000/svg" viewBox="0 0 480 480" width="480" height="480">
	<title>VESSLA</title>
	<style>
		.s0 { fill: #000000 } 
	</style>
	<path id="VESSLA" class="s0" aria-label="VESSLA"  d="m92.5 264h-47.5v-47.5h9.5v38h33.3q1.9 0 3.3-1.3q1.4-1.4 1.4-3.5v-33.2h9.5v38q0 4-2.8 6.8q-2.8 2.7-6.7 2.7zm66.5 0h-38q-4 0-6.8-2.7q-2.7-2.9-2.7-6.8h57q0 4-2.8 6.8q-2.8 2.7-6.7 2.7zm0-19h-38q-4 0-6.8-2.7q-2.7-2.9-2.7-6.8h57q0 4-2.8 6.8q-2.8 2.7-6.7 2.7zm0-19h-38q-4 0-6.8-2.7q-2.7-2.9-2.7-6.8h57q0 4-2.8 6.8q-2.8 2.7-6.7 2.7zm76 38h-57q0-3.9 2.7-6.7q2.9-2.8 6.8-2.8h38v-9.5h-47.5v-28.5h57q0 4-2.8 6.8q-2.8 2.7-6.7 2.7h-38v9.5h47.5zm66.5 0h-57q0-3.9 2.7-6.7q2.9-2.8 6.8-2.8h38v-9.5h-47.5v-28.5h57q0 4-2.8 6.8q-2.8 2.7-6.7 2.7h-38v9.5h47.5zm57 0h-47.5v-47.5h9.5v38h47.5q0 4-2.8 6.8q-2.8 2.7-6.7 2.7zm28.5 0h-9.5v-28.5h57v28.5h-9.5v-19h-38zm38-38h-38q-4 0-6.8-2.7q-2.7-2.9-2.7-6.8h57q0 4-2.8 6.8q-2.8 2.7-6.7 2.7z"/>
</svg>